<?xml version="1.0" standalone="no"?>
<!DOCTYPE svg PUBLIC "-//W3C//DTD SVG 20010904//EN"
 "http://www.w3.org/TR/2001/REC-SVG-20010904/DTD/svg10.dtd">
<svg version="1.0" xmlns="http://www.w3.org/2000/svg"
 width="512.000000pt" height="512.000000pt" viewBox="0 0 512.000000 512.000000"
 preserveAspectRatio="xMidYMid meet">

<g transform="translate(0.000000,512.000000) scale(0.100000,-0.100000)"
fill="#000000" stroke="none">
<path d="M1518 4150 c-72 -39 -72 -38 -189 -624 -60 -297 -111 -551 -114 -563
-5 -21 -11 -23 -63 -23 -235 0 -431 -177 -463 -416 -7 -52 -9 -251 -7 -550 4
-452 5 -471 26 -528 57 -153 160 -252 315 -301 67 -21 72 -25 69 -49 l-3 -25
118 -3 118 -3 3 -58 3 -57 1350 0 1350 0 -2 57 -3 58 117 3 117 3 0 554 0 555
-115 0 -115 0 0 50 c0 28 0 53 0 58 -1 4 22 10 50 13 88 12 150 80 150 167 0
22 -9 84 -20 137 -11 53 -20 99 -20 101 0 2 24 4 54 4 63 0 101 12 134 43 36
34 54 76 54 126 -1 66 -128 601 -150 630 -43 58 -100 80 -208 81 l-61 0 -42
213 c-50 251 -55 268 -89 309 -52 61 12 58 -1209 58 -1086 -1 -1119 -1 -1155
-20z m2274 -117 c15 -18 318 -1509 318 -1563 0 -15 -5 -31 -12 -38 -9 -9 -338
-12 -1419 -12 -1266 0 -1409 2 -1423 16 -9 8 -16 21 -16 27 0 36 311 1562 321
1573 10 12 189 14 1114 14 1037 0 1103 -1 1117 -17z m321 -580 c-38 -3 -53 -8
-56 -21 -3 -12 -5 -11 -6 6 -1 21 3 22 57 20 l57 -2 -52 -3z m76 -43 c0 -10
-3 -8 -9 5 -12 27 -12 43 0 25 5 -8 9 -22 9 -30z m-122 -32 c-3 -7 -5 -2 -5
12 0 14 2 19 5 13 2 -7 2 -19 0 -25z m130 -10 c-3 -8 -6 -5 -6 6 -1 11 2 17 5
13 3 -3 4 -12 1 -19z m-120 -40 c-3 -7 -5 -2 -5 12 0 14 2 19 5 13 2 -7 2 -19
0 -25z m130 -10 c-3 -8 -6 -5 -6 6 -1 11 2 17 5 13 3 -3 4 -12 1 -19z m-120
-40 c-3 -8 -6 -5 -6 6 -1 11 2 17 5 13 3 -3 4 -12 1 -19z m130 0 c-3 -8 -6 -5
-6 6 -1 11 2 17 5 13 3 -3 4 -12 1 -19z m-120 -40 c-3 -8 -6 -5 -6 6 -1 11 2
17 5 13 3 -3 4 -12 1 -19z m141 -43 c0 -16 -2 -15 -8 5 -4 14 -8 34 -8 45 0
16 2 15 8 -5 4 -14 8 -34 8 -45z m-131 -17 c-3 -7 -5 -2 -5 12 0 14 2 19 5 13
2 -7 2 -19 0 -25z m10 -50 c-3 -7 -5 -2 -5 12 0 14 2 19 5 13 2 -7 2 -19 0
-25z m10 -50 c-3 -7 -5 -2 -5 12 0 14 2 19 5 13 2 -7 2 -19 0 -25z m140 -20
c-3 -7 -5 -2 -5 12 0 14 2 19 5 13 2 -7 2 -19 0 -25z m-130 -30 c-3 -7 -5 -2
-5 12 0 14 2 19 5 13 2 -7 2 -19 0 -25z m140 -10 c-3 -8 -6 -5 -6 6 -1 11 2
17 5 13 3 -3 4 -12 1 -19z m-130 -40 c-3 -8 -6 -5 -6 6 -1 11 2 17 5 13 3 -3
4 -12 1 -19z m151 -43 c0 -16 -2 -15 -8 5 -4 14 -8 34 -8 45 0 16 2 15 8 -5 4
-14 8 -34 8 -45z m-131 -57 c-3 -7 -5 -2 -5 12 0 14 2 19 5 13 2 -7 2 -19 0
-25z m68 -41 l50 -3 -57 -2 c-49 -2 -58 1 -58 16 0 11 3 13 8 5 4 -6 30 -13
57 -16z m-3083 -191 c-39 -197 -38 -227 10 -282 40 -45 77 -64 128 -64 l40 0
0 -60 0 -59 -117 -3 -118 -3 -3 -462 c-1 -255 -6 -463 -11 -463 -5 0 -27 7
-50 15 -103 36 -188 132 -216 242 -14 53 -15 133 -13 555 l3 493 26 55 c61
130 174 208 305 209 l51 1 -35 -174z m2746 -398 l-1 -43 -4 37 -4 38 -1222 3
-1222 2 1228 3 1227 2 -2 -42z m-2441 -55 c-3 -10 -5 -2 -5 17 0 19 2 27 5 18
2 -10 2 -26 0 -35z m146 0 c-13 -2 -33 -2 -45 0 -13 2 -3 4 22 4 25 0 35 -2
23 -4z m145 0 c-16 -2 -40 -2 -55 0 -16 2 -3 4 27 4 30 0 43 -2 28 -4z m135 0
c-13 -2 -33 -2 -45 0 -13 2 -3 4 22 4 25 0 35 -2 23 -4z m145 0 c-16 -2 -40
-2 -55 0 -16 2 -3 4 27 4 30 0 43 -2 28 -4z m135 0 c-13 -2 -33 -2 -45 0 -13
2 -3 4 22 4 25 0 35 -2 23 -4z m155 0 c-15 -2 -42 -2 -60 0 -18 2 -6 4 27 4
33 0 48 -2 33 -4z m125 0 c-13 -2 -33 -2 -45 0 -13 2 -3 4 22 4 25 0 35 -2 23
-4z m155 0 c-15 -2 -42 -2 -60 0 -18 2 -6 4 27 4 33 0 48 -2 33 -4z m135 0
c-13 -2 -33 -2 -45 0 -13 2 -3 4 22 4 25 0 35 -2 23 -4z m145 0 c-15 -2 -42
-2 -60 0 -18 2 -6 4 27 4 33 0 48 -2 33 -4z m135 0 c-13 -2 -33 -2 -45 0 -13
2 -3 4 22 4 25 0 35 -2 23 -4z m145 0 c-16 -2 -40 -2 -55 0 -16 2 -3 4 27 4
30 0 43 -2 28 -4z m135 0 c-13 -2 -33 -2 -45 0 -13 2 -3 4 22 4 25 0 35 -2 23
-4z m145 0 c-16 -2 -40 -2 -55 0 -16 2 -3 4 27 4 30 0 43 -2 28 -4z m135 0
c-13 -2 -33 -2 -45 0 -13 2 -3 4 22 4 25 0 35 -2 23 -4z m155 0 c-15 -2 -42
-2 -60 0 -18 2 -6 4 27 4 33 0 48 -2 33 -4z m125 0 c-13 -2 -33 -2 -45 0 -13
2 -3 4 22 4 25 0 35 -2 23 -4z m287 -567 l0 -434 -55 -4 -55 -3 -2 175 -3 175
-51 3 -52 3 -74 172 -74 172 -1096 3 -1096 2 -74 -175 -73 -174 -52 -1 -53 0
0 -175 0 -175 -59 0 -58 0 -1 418 c-1 229 1 425 4 435 5 16 84 17 1465 17
l1459 0 0 -434z m-2402 127 c-10 -2 -26 -2 -35 0 -10 3 -2 5 17 5 19 0 27 -2
18 -5z m165 0 c-24 -2 -62 -2 -85 0 -24 2 -5 4 42 4 47 0 66 -2 43 -4z m115 0
c-10 -2 -26 -2 -35 0 -10 3 -2 5 17 5 19 0 27 -2 18 -5z m165 0 c-24 -2 -62
-2 -85 0 -24 2 -5 4 42 4 47 0 66 -2 43 -4z m125 0 c-10 -2 -28 -2 -40 0 -13
2 -5 4 17 4 22 1 32 -1 23 -4z m155 0 c-24 -2 -62 -2 -85 0 -24 2 -5 4 42 4
47 0 66 -2 43 -4z m125 0 c-10 -2 -28 -2 -40 0 -13 2 -5 4 17 4 22 1 32 -1 23
-4z m165 0 c-24 -2 -62 -2 -85 0 -24 2 -5 4 42 4 47 0 66 -2 43 -4z m115 0
c-10 -2 -28 -2 -40 0 -13 2 -5 4 17 4 22 1 32 -1 23 -4z m165 0 c-24 -2 -62
-2 -85 0 -24 2 -5 4 42 4 47 0 66 -2 43 -4z m115 0 c-10 -2 -26 -2 -35 0 -10
3 -2 5 17 5 19 0 27 -2 18 -5z m165 0 c-24 -2 -62 -2 -85 0 -24 2 -5 4 42 4
47 0 66 -2 43 -4z m115 0 c-10 -2 -26 -2 -35 0 -10 3 -2 5 17 5 19 0 27 -2 18
-5z m165 0 c-24 -2 -62 -2 -85 0 -24 2 -5 4 42 4 47 0 66 -2 43 -4z m104 -13
c3 -10 2 -11 -4 -4 -4 6 -15 14 -23 17 -11 5 -9 6 4 4 11 -1 21 -9 23 -17z
m-2058 -59 c-12 -29 -23 -50 -25 -48 -2 2 6 27 18 55 12 28 23 50 26 48 2 -2
-7 -27 -19 -55z m2135 -118 l7 -23 -1108 2 -1108 3 1102 5 1102 5 -19 44 c-11
24 -20 46 -20 50 1 9 36 -60 44 -86z m134 -323 l0 -170 -1229 0 -1229 0 0 170
0 170 1229 0 1228 0 1 -170z"/>
<path d="M1645 3928 c-7 -21 -275 -1372 -275 -1385 0 -10 269 -13 1311 -13
1243 0 1310 1 1305 18 -3 9 -67 326 -142 705 l-137 687 -1029 0 c-814 0 -1030
-3 -1033 -12z m1965 -111 c0 -1 52 -261 115 -577 63 -316 115 -578 115 -582 0
-5 -525 -8 -1166 -8 -929 0 -1165 3 -1162 13 3 6 56 270 119 585 l114 572 932
0 c513 0 933 -1 933 -3z"/>
<path d="M1860 3645 l0 -55 55 0 55 0 0 55 0 55 -55 0 -55 0 0 -55z"/>
<path d="M2090 3645 l0 -55 60 0 60 0 0 55 0 55 -60 0 -60 0 0 -55z"/>
<path d="M2330 3645 l0 -55 55 0 55 0 0 55 0 55 -55 0 -55 0 0 -55z"/>
<path d="M2620 3501 c0 -25 -7 -32 -46 -51 -106 -52 -133 -180 -56 -272 34
-40 79 -58 144 -58 66 0 98 -20 98 -60 0 -53 -18 -60 -161 -60 l-129 0 0 -60
0 -60 75 0 75 0 0 -30 0 -31 58 3 c56 3 57 4 60 35 2 23 9 33 27 37 35 9 86
55 101 93 31 74 6 169 -57 214 -23 16 -53 24 -112 29 -85 8 -107 21 -107 65 0
46 27 55 163 55 l127 0 0 60 0 60 -69 0 c-69 0 -70 0 -73 28 -3 26 -6 27 -60
30 l-58 3 0 -30z"/>
<path d="M2500 1240 l0 -60 178 2 177 3 3 58 3 57 -181 0 -180 0 0 -60z"/>
</g>
</svg>
