<svg width="46" height="48" viewBox="0 0 46 48" fill="none" xmlns="http://www.w3.org/2000/svg">
<path d="M3.48857 30.9392C3.94168 30.9392 4.39692 30.9435 4.85003 30.9371C5.35419 30.9307 5.7137 31.2413 5.73072 31.7136C5.74561 32.139 5.36483 32.5198 4.8947 32.5241C3.94381 32.5326 2.99292 32.5304 2.0399 32.5241C1.5485 32.5219 1.19963 32.1837 1.1975 31.7306C1.19325 31.2711 1.52936 30.9541 2.04203 30.9456C2.52492 30.9392 3.00781 30.9435 3.4907 30.9435C3.48858 30.9435 3.48857 30.9414 3.48857 30.9392Z" fill="#77DD77"/>
<path d="M30.7901 1.99571C30.7369 1.99571 30.6795 1.99146 30.6199 1.98082C30.6667 2.20631 30.6433 2.41691 30.5497 2.61475C30.6625 2.64453 30.788 2.68282 30.9071 2.75728C31.0709 2.85939 31.2092 3.04446 31.2666 3.24017C31.3198 3.41886 31.3602 3.59968 31.3985 3.77411C31.4347 3.93578 31.4708 4.09108 31.5134 4.24211C31.6368 4.67395 31.4964 4.959 31.0964 5.08877C31.0688 5.10153 31.0135 5.16109 31.0007 5.19513C30.8731 5.53975 30.7603 5.91628 30.6582 6.34599C30.5306 6.87355 30.1562 6.92886 30.0009 6.92886C29.92 6.92886 29.8371 6.91609 29.7477 6.89057C29.6095 6.85015 29.4776 6.80547 29.3499 6.75867C29.2712 6.73102 29.1925 6.70337 29.1138 6.67784C29.0755 6.66508 29.0542 6.66295 29.0436 6.66295C29.0394 6.66933 29.033 6.67997 29.0245 6.69911C28.9755 6.81398 28.9245 6.92673 28.8756 7.0416C28.7032 7.43727 28.5246 7.84358 28.3671 8.24777C28.2991 8.42433 28.1714 8.7498 27.8374 8.7498C27.7821 8.7498 27.7311 8.74129 27.6843 8.72428C27.7651 8.80298 27.8502 8.87531 27.9396 8.94551L27.9821 8.97742C28.0289 9.01358 28.1034 9.07315 28.1395 9.08804C28.4395 9.1008 28.9372 9.23269 29.0372 9.95809C29.0649 10.1581 29.0883 10.358 29.1074 10.558C29.1351 10.1559 29.0649 9.70282 28.899 9.18164L28.6947 8.54559L29.3329 8.74555C29.3904 8.76257 29.4457 8.77533 29.4967 8.78809C29.6265 8.81788 29.7754 8.85191 29.8966 8.96466C29.9456 9.00933 29.9945 9.054 30.0434 9.09867C30.3178 9.34756 30.6029 9.60709 30.8305 9.92193C31.0581 10.241 31.2475 10.5899 31.4304 10.9281C31.5091 11.0728 31.59 11.2238 31.675 11.3727L31.8537 11.6854L31.4602 11.8918C32.3664 12.1598 33.1003 12.7214 33.647 13.5617C33.6768 13.6064 33.7151 13.6638 33.7491 13.717C33.7768 13.6915 33.8066 13.6617 33.8364 13.634L33.9087 13.5638C34.3384 13.1554 34.8106 12.7959 35.3084 12.4938C36.0083 12.0683 36.4976 11.6131 36.8486 11.0579C36.9954 10.8239 36.9762 10.7005 36.8847 10.5559C36.4912 9.92406 36.287 9.20929 36.2572 8.37328C36.2529 8.25202 36.2848 8.14991 36.3104 8.06695C36.3168 8.04568 36.3253 8.02228 36.3295 8.001L36.4167 7.62448L36.7826 7.75424C36.7954 7.75849 36.823 7.76488 36.8464 7.77126C36.9528 7.79679 37.1145 7.83508 37.2272 7.97335C37.3166 8.08184 37.3783 8.20097 37.4314 8.3052C37.4634 8.36689 37.4931 8.42646 37.525 8.47538C37.525 8.47538 37.5718 8.54984 37.5846 8.56473C37.5889 8.5626 37.591 8.56048 37.5931 8.55622C37.6974 8.30946 37.7548 8.0244 37.808 7.74786C37.8335 7.61809 37.8505 7.48195 37.8675 7.34155C37.8909 7.14584 37.9165 6.94375 37.9675 6.73953C38.0143 6.55446 38.1356 6.42257 38.2313 6.31833C38.2632 6.28429 38.293 6.25238 38.3143 6.22473L38.3653 6.15879C36.3636 4.19957 34.0257 2.58071 31.4453 1.39795C31.3666 1.70002 31.2177 1.99571 30.7901 1.99571Z" fill="#77DD77"/>
<path d="M40.7521 8.87109C40.7436 8.88598 40.735 8.90088 40.7308 8.91151C40.667 9.05404 40.6053 9.19869 40.5436 9.34335C40.4479 9.56671 40.3479 9.79858 40.2436 10.0262C40.216 10.0879 40.1883 10.1517 40.1628 10.2177C40.0713 10.4389 39.9692 10.6899 39.7799 10.8856C39.1864 11.4983 38.7822 12.2258 38.3525 12.9959C38.2483 13.1831 38.1398 13.3767 38.0313 13.566C37.3101 14.8147 36.3061 15.8145 35.3318 16.7803L35.2743 16.8377C35.0382 17.0717 34.7425 17.1951 34.4128 17.1951C34.2766 17.1951 34.1341 17.1738 33.9916 17.1313L33.8278 17.0824C33.1364 16.8781 32.4217 16.6654 31.726 16.4293C30.4816 16.006 29.5413 15.2465 28.9266 14.1701L26.5164 19.7415L27.2375 19.7861C28.2756 19.8499 29.3222 20.0712 30.3454 20.4435C30.4773 20.4924 30.5752 20.5753 30.6518 20.6413C30.6752 20.6604 30.6964 20.6817 30.7198 20.6987L31.0326 20.9306L30.7666 21.2157C30.7475 21.2369 30.7284 21.2582 30.7113 21.2795C30.6582 21.3433 30.5922 21.422 30.5029 21.4879C30.8368 21.405 31.173 21.322 31.5048 21.239C31.6558 21.2008 31.8069 21.1816 31.9537 21.1816C32.2515 21.1816 32.5387 21.2603 32.8025 21.4177L32.9407 21.4986C33.7278 21.9644 34.5426 22.4452 35.336 22.9324C35.5764 23.0791 35.7806 23.2834 35.9317 23.4429C36.606 24.1619 36.7145 25.0554 36.2274 25.8935C35.9934 26.2956 35.753 26.6189 35.4934 26.8806C33.9363 28.4441 32.5621 29.8013 31.2921 31.0309C30.6411 31.6606 29.9668 32.3455 29.4839 33.1794C29.3946 33.3326 29.3839 33.4453 29.4392 33.6198C29.5328 33.9155 29.586 34.2175 29.6392 34.5111C29.6647 34.66 29.6902 34.7983 29.72 34.9387C29.8902 35.7364 30.237 36.3916 30.7815 36.9405C30.9687 37.1298 31.2091 37.3829 31.4091 37.668C31.5878 37.9254 31.6346 38.2104 31.5346 38.4508C31.4389 38.6848 31.2261 38.8422 30.9368 38.8954C30.8049 38.9188 30.6667 38.9316 30.5305 38.9316C30.2752 38.9316 30.0349 38.8869 29.8349 38.8039L29.8264 38.7997C29.2052 38.5402 28.5628 38.2743 28.0118 37.8637C27.0737 37.1659 26.1611 36.4065 25.2804 35.6705C25.089 35.5109 24.8975 35.3514 24.706 35.1918C24.4827 35.0068 24.3402 34.743 24.2593 34.5558C24.1317 34.258 24.0785 33.8134 24.5593 33.3943C24.7295 33.2454 24.8847 33.0731 25.0464 32.8901C25.1911 32.7285 25.34 32.5604 25.5059 32.4051C25.6888 32.2328 25.993 32.0477 26.2972 32.0435C26.6206 32.0371 26.8525 31.935 27.0546 31.7095C27.8906 30.7714 28.6266 29.6907 29.3031 28.4016C29.3797 28.2548 29.4477 28.0974 29.5179 27.9336C29.6201 27.6974 29.7243 27.4549 29.8668 27.2231C30.1178 26.8168 30.4008 26.4275 30.6752 26.0531C30.739 25.9658 30.8028 25.8765 30.8666 25.7893C30.8326 25.7893 30.7986 25.7914 30.7666 25.7935C30.3603 25.8106 29.9476 25.834 29.5477 25.8531C28.7181 25.8956 27.8587 25.9403 27.012 25.9552C26.9673 25.9552 26.9227 25.9573 26.8801 25.9573C26.3355 25.9573 25.791 25.902 25.2634 25.8467C25.1634 25.8361 25.0656 25.8255 24.9656 25.8169C24.9422 25.8148 24.9209 25.8127 24.8996 25.8127C24.789 25.8127 24.7167 25.8382 24.5997 25.9893C24.4614 26.1658 24.3253 26.3424 24.187 26.5211C23.4084 27.5273 22.6022 28.5675 21.764 29.5567C21.4535 29.9247 21.1003 30.2523 20.7578 30.5693C20.5196 30.7905 20.2728 31.0181 20.0495 31.2542C19.8176 31.4968 19.6091 31.7563 19.3857 32.0307C19.2219 32.2328 19.0518 32.4434 18.8731 32.6455C18.8348 32.6902 18.7944 32.737 18.7561 32.7838C18.5561 33.022 18.3285 33.2922 18.0094 33.4113C16.7479 33.8857 15.7183 34.6877 14.627 35.5364C14.5122 35.6258 14.3994 35.7151 14.2845 35.8024C13.3634 36.515 12.4487 37.2702 11.5616 38.002C11.3489 38.1764 11.1362 38.353 10.9235 38.5274C10.5384 38.8444 10.3491 39.1571 10.3129 39.5421C10.2853 39.8357 10.0683 40.1016 9.89385 40.2718C9.20675 40.9376 8.66429 41.5098 8.4388 42.2969C8.3686 42.5437 8.33244 42.8053 8.29414 43.0819C8.28351 43.1542 8.27287 43.2287 8.26224 43.301C8.25798 43.3265 8.25798 43.3435 8.25798 43.352L8.26011 43.3882L8.18991 43.786H8.17715C8.1814 43.9051 8.13035 44.0264 8.03036 44.0923C11.8467 46.5642 16.3969 48.0001 21.2811 48.0001C34.7638 48.0001 45.6937 37.0702 45.6937 23.5876C45.6958 18.0673 43.8536 12.9661 40.7521 8.87109Z" fill="#77DD77"/>
<path d="M11.7914 7.8331H4.03115C3.58016 7.8331 3.2164 7.46721 3.2164 7.01836C3.2164 6.56738 3.58229 6.20361 4.03115 6.20361H11.7914C12.2424 6.20361 12.6062 6.5695 12.6062 7.01836C12.6083 7.46721 12.2424 7.8331 11.7914 7.8331Z" fill="#232021"/>
<path d="M10.8516 24.7594H1.43842C0.987436 24.7594 0.623672 24.3935 0.623672 23.9446C0.623672 23.4936 0.989564 23.1299 1.43842 23.1299H10.8516C11.3026 23.1299 11.6663 23.4958 11.6663 23.9446C11.6663 24.3956 11.3026 24.7594 10.8516 24.7594Z" fill="#77DD77"/>
<path d="M14.6249 28.5313H5.21169C4.76071 28.5313 4.39694 28.1655 4.39694 27.7166C4.39694 27.2656 4.76283 26.9019 5.21169 26.9019H14.6249C15.0758 26.9019 15.4396 27.2677 15.4396 27.7166C15.4396 28.1655 15.0737 28.5313 14.6249 28.5313Z" fill="#232021"/>
<path d="M3.20154 10.5367H2.52719C2.07621 10.5367 1.71245 10.1708 1.71245 9.72197C1.71245 9.27099 2.07834 8.90723 2.52719 8.90723H3.20154C3.65252 8.90723 4.01628 9.27312 4.01628 9.72197C4.01628 10.1708 3.65252 10.5367 3.20154 10.5367Z" fill="#77DD77"/>
<path d="M17.1648 24.296H16.4905C16.0395 24.296 15.6757 23.9301 15.6757 23.4812C15.6757 23.0303 16.0416 22.6665 16.4905 22.6665H17.1648C17.6158 22.6665 17.9796 23.0324 17.9796 23.4812C17.9796 23.9301 17.6158 24.296 17.1648 24.296Z" fill="#232021"/>
<path d="M5.28819 15.3463H4.61385C4.16287 15.3463 3.7991 14.9804 3.7991 14.5315C3.7991 14.0806 4.16499 13.7168 4.61385 13.7168H5.28819C5.73917 13.7168 6.10294 14.0827 6.10294 14.5315C6.10294 14.9804 5.73917 15.3463 5.28819 15.3463Z" fill="#77DD77"/>
<path d="M1.58907 29.8521H0.814746C0.363764 29.8521 0 29.4863 0 29.0374C0 28.5864 0.365891 28.2227 0.814746 28.2227H1.58907C2.04005 28.2227 2.40382 28.5885 2.40382 29.0374C2.40382 29.4884 2.04005 29.8521 1.58907 29.8521Z" fill="#77DD77"/>
<path d="M40.5429 8.14119C40.4408 8.16672 40.3281 8.17523 40.2366 8.22203C40.1473 8.26883 40.0792 8.35605 40.0005 8.42412C39.9728 8.4071 39.943 8.38796 39.9154 8.37094C39.9728 8.15183 40.0473 7.93698 40.0792 7.71361C40.1047 7.52641 40.1302 7.19031 40.0643 7.16691C39.7941 7.06905 39.7707 7.36687 39.6622 7.52429C39.6027 7.6115 39.541 7.6966 39.4814 7.78169C39.4516 7.76892 39.4219 7.75616 39.3921 7.74552C39.4453 7.43281 39.5133 7.1201 39.5431 6.80527C39.5559 6.67976 39.4878 6.54361 39.458 6.41385C39.3517 6.49894 39.207 6.56489 39.1453 6.6755C39.0262 6.88823 38.9539 7.12648 38.8603 7.3541C38.8241 7.34985 38.7879 7.34347 38.7518 7.33921C38.7518 7.17329 38.773 7.00523 38.7454 6.84356C38.7199 6.70103 38.6411 6.56914 38.5858 6.43299C38.488 6.56063 38.3369 6.6755 38.3008 6.82016C38.2199 7.1435 38.2093 7.48387 38.1455 7.81359C38.0859 8.11779 38.0242 8.42838 37.9009 8.70918C37.8455 8.83469 37.6456 8.9453 37.4988 8.96445C37.4243 8.97509 37.3073 8.77938 37.2308 8.66238C37.1308 8.50921 37.067 8.3284 36.9542 8.19012C36.8968 8.11992 36.7628 8.11354 36.6628 8.07738C36.6415 8.17098 36.5968 8.2667 36.6011 8.35818C36.6266 9.07507 36.7947 9.75367 37.1755 10.3684C37.3648 10.6726 37.3244 10.9428 37.1372 11.2385C36.7181 11.9022 36.1501 12.383 35.4843 12.7872C35.0056 13.0786 34.5504 13.4275 34.142 13.8125C33.691 14.2401 33.6995 14.2848 33.3485 13.7466C32.7954 12.8956 32.0466 12.3532 31.0532 12.1426C30.917 12.1149 30.7915 12.0426 30.5745 11.9554C30.9085 11.781 31.1574 11.6512 31.368 11.5406C31.0851 11.0449 30.8532 10.5535 30.5426 10.1196C30.3001 9.77919 29.9661 9.50052 29.6556 9.21334C29.5726 9.13676 29.4237 9.1325 29.2216 9.07081C29.5641 10.1366 29.5811 11.0811 28.9302 11.932C28.8961 11.9256 28.86 11.9192 28.8259 11.915C28.8323 11.7937 28.8514 11.6703 28.8408 11.5491C28.7961 11.0322 28.7578 10.5152 28.6876 10.0026C28.643 9.68559 28.4983 9.44309 28.109 9.43245C27.9771 9.42819 27.8389 9.30694 27.7219 9.2176C27.1177 8.7496 26.7306 8.12843 26.4646 7.42218C26.4349 7.3456 26.4264 7.2605 26.3923 7.10521C26.5008 7.18818 26.5497 7.21583 26.588 7.25412C26.9241 7.5881 27.2432 7.94123 27.5964 8.25607C27.8538 8.48581 27.9154 8.43688 28.041 8.11779C28.2473 7.59236 28.4792 7.07543 28.7047 6.55638C28.8068 6.32238 28.9897 6.26919 29.2195 6.34365C29.4279 6.41172 29.6343 6.49043 29.8449 6.55212C30.1023 6.62658 30.2554 6.53723 30.3214 6.25856C30.4192 5.85651 30.5341 5.45658 30.6766 5.06942C30.7256 4.93965 30.8638 4.795 30.9915 4.75245C31.2446 4.66949 31.2404 4.53972 31.1808 4.33125C31.0872 4.00152 31.0298 3.66116 30.934 3.33143C30.9021 3.22294 30.8192 3.10594 30.7256 3.04638C30.6022 2.9698 30.4469 2.94427 30.3022 2.90172C30.1214 2.84854 30.0385 2.75707 30.1682 2.57838C30.3363 2.34863 30.3278 2.10825 30.2214 1.85511C30.1852 1.77002 30.1831 1.67003 30.1576 1.5424C30.2682 1.55516 30.3235 1.55516 30.3746 1.56792C30.9787 1.72109 31.0468 1.67854 31.1532 1.06589C31.2127 0.719142 31.0915 0.534069 30.666 0.393669C29.596 0.0426688 28.4919 -0.0445482 27.3751 0.01927C26.8603 0.0490518 26.4476 0.302197 26.186 0.757434C25.7818 1.45943 25.5499 2.19547 25.7775 3.01234C25.8796 3.38036 26.0179 3.73987 26.0817 4.11214C26.1307 4.38656 26.1668 4.70778 26.069 4.95029C25.7648 5.70334 24.8947 6.3713 23.8247 5.87565C23.3801 5.6693 22.8483 5.58847 22.3526 5.5757C21.791 5.56081 21.255 5.74801 20.6551 5.65867C20.0105 5.56294 19.3213 5.72462 18.6576 5.81396C17.8683 5.92032 17.0812 6.05647 16.2984 6.2075C16.0134 6.26281 15.7134 6.35003 15.4752 6.50532C13.9159 7.52429 12.5736 8.79639 11.2887 10.1366C11.0908 10.3429 10.81 10.5003 10.5378 10.6046C9.85703 10.862 9.15929 11.0726 8.47218 11.3108C8.07863 11.447 8.05948 11.5427 8.34028 11.8724C8.18287 11.9724 8.01907 12.0575 7.88292 12.1745C7.81272 12.2362 7.79358 12.3574 7.75103 12.451C7.84463 12.4723 7.93823 12.5149 8.03183 12.5106C8.13181 12.5064 8.22967 12.4596 8.32752 12.4319C8.18287 12.6149 8.00205 12.7148 7.8425 12.8446C7.76379 12.9084 7.7255 13.0254 7.6702 13.1169C7.78507 13.1424 7.90207 13.1956 8.01269 13.185C8.18074 13.1679 8.34241 13.1062 8.50834 13.0637C8.51898 13.0914 8.52961 13.119 8.54025 13.1467C8.42963 13.2232 8.30412 13.2849 8.21265 13.3807C8.08714 13.5104 7.86165 13.7317 7.89781 13.7997C8.02971 14.0486 8.25732 13.8657 8.44452 13.8125C8.5445 13.7848 8.63385 13.7253 8.7317 13.6934C9.20396 13.5423 9.67621 13.387 10.1548 13.2573C10.2825 13.2232 10.4335 13.2743 10.5739 13.2871C10.5612 13.4296 10.5654 13.5785 10.5292 13.7168C10.4676 13.9486 10.3697 14.172 10.3101 14.4039C10.2952 14.4613 10.3484 14.5719 10.3995 14.5975C10.4484 14.623 10.5675 14.5932 10.6037 14.5464C10.9568 14.1124 11.4121 13.7402 11.4482 13.1126C11.461 12.8701 11.5227 12.6319 11.5482 12.3915C11.5865 12.0277 11.7418 11.7427 12.0141 11.4938C12.7267 10.8364 13.5287 10.3238 14.3945 9.89194C15.2709 9.45585 16.1389 8.99636 16.9898 8.50708C17.2557 8.35605 17.4684 8.2901 17.762 8.39434C18.6363 8.70705 19.5276 8.95169 20.4636 8.97083C20.7508 8.97721 20.8699 9.11761 20.9188 9.38352C21.0933 10.3365 21.3103 11.2832 21.4507 12.2404H24.2246C24.6756 12.2404 25.0394 12.6063 25.0394 13.0552C25.0394 13.5062 24.6735 13.8699 24.2246 13.8699H21.5868C21.5868 14.1422 21.574 14.4124 21.5443 14.6847H21.84C22.2399 14.6847 22.5632 14.9208 22.5632 15.2144C22.5632 15.5058 22.2399 15.7441 21.84 15.7441H21.34C21.0061 17.0204 20.4445 18.2011 19.8212 19.354H21.3932C21.8442 19.354 22.208 19.7199 22.208 20.1688C22.208 20.6198 21.8421 20.9835 21.3932 20.9835H19.0979C18.9447 21.5175 18.8682 22.0684 18.8937 22.6492C18.9107 23.0427 18.9298 23.4363 18.9107 23.8298C18.8979 24.066 18.8682 24.3319 18.749 24.5254C17.6748 26.2826 16.9111 28.1801 16.1686 30.0883C16.0453 30.4074 15.8474 30.6328 15.5305 30.7775C14.403 31.2902 13.4564 32.0283 12.7352 33.0473C12.4353 33.4728 12.129 33.9003 11.7716 34.2747C11.0164 35.0703 10.2399 35.8468 9.43796 36.5956C9.2465 36.7743 8.92954 36.887 8.65938 36.9062C8.15521 36.9445 7.64467 36.8785 7.13838 36.8806C6.60018 36.8828 6.41511 37.0083 6.35129 37.5507C6.28534 38.1081 6.30236 38.6782 6.30449 39.2419C6.30661 39.6695 6.38107 40.0992 6.35554 40.5225C6.29811 41.4968 6.23642 42.4669 6.65123 43.3901C6.66612 43.422 6.67463 43.4497 6.67889 43.4752L6.78312 43.5539C7.14689 43.5241 7.51703 43.4943 7.89356 43.4667L7.91058 43.3709C7.90845 43.3369 7.91058 43.2986 7.91696 43.2561C7.96801 42.9051 8.0063 42.5456 8.10203 42.2073C8.35943 41.3032 8.99761 40.6608 9.64856 40.0269C9.79109 39.8886 9.94637 39.695 9.96552 39.5121C10.0187 38.9675 10.3101 38.5846 10.7016 38.2612C11.8184 37.3423 12.9267 36.4126 14.069 35.5298C15.2646 34.6045 16.4346 33.6323 17.8832 33.0877C18.1704 32.9792 18.3895 32.6665 18.6086 32.4176C19.0128 31.9603 19.3723 31.4582 19.7935 31.0158C20.3424 30.4371 20.9827 29.9394 21.4953 29.3331C22.4718 28.1758 23.3929 26.9718 24.3204 25.7763C24.5033 25.5402 24.6926 25.4402 24.9947 25.47C25.6627 25.5359 26.3328 25.6189 27.0007 25.6082C28.2494 25.587 29.4981 25.4997 30.7447 25.4466C30.9872 25.4359 31.2297 25.4444 31.4744 25.4444C31.485 25.4827 31.4956 25.521 31.5084 25.5593C31.4063 25.6763 31.2914 25.7869 31.2021 25.9124C30.8468 26.406 30.4767 26.891 30.1576 27.4079C29.9342 27.7695 29.8045 28.1865 29.6045 28.5651C28.9684 29.7777 28.2218 30.9179 27.307 31.9432C27.039 32.2432 26.7135 32.3857 26.2966 32.3921C26.1073 32.3964 25.8839 32.524 25.7371 32.6601C25.401 32.975 25.1266 33.3579 24.7798 33.6578C24.5161 33.8876 24.4459 34.128 24.5714 34.4194C24.6501 34.6045 24.7671 34.798 24.9202 34.9236C26.0073 35.8234 27.0816 36.7402 28.2133 37.5826C28.7323 37.9698 29.3577 38.2293 29.964 38.4804C30.232 38.591 30.5788 38.6037 30.8702 38.5484C31.2425 38.4804 31.3382 38.174 31.1191 37.8613C30.9489 37.6167 30.7426 37.3933 30.532 37.1785C29.9278 36.5679 29.5556 35.8383 29.3769 35.0044C29.2854 34.5747 29.2365 34.1343 29.1067 33.7174C29.0195 33.443 29.045 33.2345 29.1812 32.9984C29.6726 32.1453 30.3469 31.4518 31.0489 30.7732C32.4614 29.4054 33.859 28.0206 35.246 26.6272C35.5119 26.3613 35.7353 26.0379 35.9246 25.7125C36.3394 24.9977 36.2416 24.2766 35.6757 23.6745C35.5183 23.5065 35.346 23.3406 35.1524 23.2214C34.3164 22.7066 33.4697 22.2088 32.6231 21.7089C32.2997 21.5175 31.953 21.4749 31.585 21.5685C30.8681 21.7494 30.1491 21.9238 29.4322 22.1004C29.3194 22.128 29.2067 22.1493 29.0918 22.1727C29.0769 22.1365 29.0599 22.1004 29.045 22.0663C29.4598 21.7813 29.8747 21.5005 30.2852 21.209C30.3724 21.1473 30.4363 21.0516 30.5107 20.9729C30.415 20.9027 30.3299 20.8048 30.2235 20.7644C29.2514 20.4113 28.2473 20.1901 27.2134 20.1284C26.805 20.1028 26.3944 20.0773 25.9988 20.0539C26.9582 17.833 27.9069 15.642 28.877 13.3998C28.9578 13.5274 29.028 13.6147 29.0748 13.7125C29.6577 14.8995 30.5979 15.676 31.8339 16.0972C32.5784 16.3503 33.3315 16.5716 34.0867 16.7949C34.4291 16.897 34.7631 16.8481 35.0227 16.5886C36.0161 15.6015 37.0117 14.623 37.7222 13.3913C38.2689 12.4425 38.7433 11.4448 39.5218 10.6407C39.7133 10.4429 39.8005 10.1408 39.9196 9.87918C40.0877 9.51329 40.2409 9.13889 40.4025 8.76874C40.4493 8.66238 40.5302 8.56665 40.5536 8.45816C40.5855 8.3603 40.5514 8.24968 40.5429 8.14119Z" fill="#232021"/>
<path d="M17.6194 17.2184C18.0704 17.2184 18.4342 16.8525 18.4342 16.4036C18.4342 15.9526 18.0683 15.5889 17.6194 15.5889H8.20626C7.75527 15.5889 7.39151 15.9548 7.39151 16.4036C7.39151 16.8546 7.7574 17.2184 8.20626 17.2184H17.6194Z" fill="#232021"/>
<path d="M16.0139 20.9898C16.4649 20.9898 16.8286 20.6239 16.8286 20.1751C16.8286 19.7241 16.4628 19.3604 16.0139 19.3604H6.60073C6.14974 19.3604 5.78598 19.7262 5.78598 20.1751C5.78598 20.6261 6.15187 20.9898 6.60073 20.9898H16.0139Z" fill="#77DD77"/>
<path d="M5.45582 39.2506L5.45369 39.0017C5.45157 38.7889 5.45157 38.5741 5.45369 38.355H2.05857C1.60758 38.355 1.24382 38.7209 1.24382 39.1697C1.24382 39.6207 1.60971 39.9845 2.05857 39.9845H5.49411C5.48986 39.9398 5.48773 39.8972 5.4856 39.8526C5.47284 39.6611 5.45582 39.4612 5.45582 39.2506Z" fill="#232021"/>
<path d="M8.99377 10.2428C9.4256 10.1003 9.83191 9.96629 10.234 9.81313C10.4212 9.74293 10.585 9.64507 10.6722 9.5536C10.8743 9.343 11.087 9.12389 11.3061 8.90479H7.26004C6.80906 8.90479 6.4453 9.27068 6.4453 9.71953C6.4453 10.1684 6.81119 10.5343 7.26004 10.5343H8.12797C8.15137 10.5258 8.17264 10.5173 8.19179 10.5109C8.4577 10.4194 8.72573 10.3322 8.99377 10.2428Z" fill="#232021"/>
<path d="M16.6732 10.5367C17.1242 10.5367 17.488 10.1708 17.488 9.72191C17.488 9.56024 17.4391 9.41133 17.3582 9.28369C16.6201 9.70489 15.8351 10.1261 15.0182 10.5367H16.6732Z" fill="#77DD77"/>
<path d="M11.0742 33.7749H7.57054C7.11956 33.7749 6.7558 34.1408 6.7558 34.5896C6.7558 35.0406 7.12169 35.4044 7.57054 35.4044H9.45956C9.98713 34.8938 10.5211 34.3556 11.0742 33.7749Z" fill="#77DD77"/>
<path d="M7.89605 43.473C7.89605 43.473 7.84925 44.2069 7.41316 44.2133C7.41316 44.2133 6.95154 44.3261 6.68138 43.4815L7.28765 43.0688L7.89605 43.473Z" fill="#232021"/>
</svg>
