<svg width="18" height="16" viewBox="0 0 18 16" fill="none" xmlns="http://www.w3.org/2000/svg">
<path d="M8.33333 7.5L1.66667 3.33333V11.6667H9.16667V13.3333H1.66667C1.20833 13.3333 0.815972 13.1701 0.489583 12.8438C0.163194 12.5174 0 12.125 0 11.6667V1.66667C0 1.20833 0.163194 0.815972 0.489583 0.489583C0.815972 0.163194 1.20833 0 1.66667 0H15C15.4583 0 15.8507 0.163194 16.1771 0.489583C16.5035 0.815972 16.6667 1.20833 16.6667 1.66667V7.5H15V3.33333L8.33333 7.5ZM8.33333 5.83333L15 1.66667H1.66667L8.33333 5.83333ZM14.1667 15.8333L13 14.6667L14.3125 13.3333H10.8333V11.6667H14.3125L12.9792 10.3333L14.1667 9.16667L17.5 12.5L14.1667 15.8333ZM1.66667 3.33333V12.5V7.5V7.5625V1.66667V3.33333Z" fill="#525167"/>
</svg>
