<svg width="77" height="81" viewBox="0 0 77 81" fill="none" xmlns="http://www.w3.org/2000/svg">
<path d="M5.87876 52.2508C6.64231 52.2508 7.40944 52.258 8.17299 52.2472C9.02257 52.2365 9.62839 52.7598 9.65707 53.5557C9.68216 54.2726 9.04049 54.9143 8.24826 54.9214C6.64589 54.9358 5.04352 54.9322 3.43756 54.9214C2.60949 54.9179 2.0216 54.3479 2.01801 53.5843C2.01084 52.81 2.57722 52.2759 3.44114 52.2616C4.25488 52.2508 5.06861 52.258 5.88235 52.258C5.87876 52.258 5.87876 52.2544 5.87876 52.2508Z" fill="#77DD77"/>
<path d="M51.8857 3.47703C51.7961 3.47703 51.6993 3.46987 51.599 3.45194C51.6778 3.83193 51.6384 4.18681 51.4807 4.52019C51.6707 4.57038 51.8822 4.6349 52.0829 4.76037C52.3589 4.93243 52.5919 5.24431 52.6887 5.5741C52.7783 5.87522 52.8465 6.17992 52.911 6.47387C52.9719 6.74631 53.0329 7.008 53.1045 7.26251C53.3125 7.99021 53.0759 8.47056 52.4019 8.68923C52.3553 8.71074 52.2621 8.81111 52.2406 8.86847C52.0256 9.44919 51.8356 10.0837 51.6635 10.8078C51.4484 11.6968 50.8175 11.79 50.5558 11.79C50.4196 11.79 50.2798 11.7685 50.1292 11.7255C49.8962 11.6574 49.674 11.5821 49.4589 11.5032C49.3263 11.4566 49.1936 11.41 49.061 11.367C48.9965 11.3455 48.9606 11.3419 48.9427 11.3419C48.9355 11.3527 48.9248 11.3706 48.9104 11.4029C48.828 11.5964 48.7419 11.7864 48.6595 11.98C48.3691 12.6468 48.068 13.3315 47.8027 14.0125C47.688 14.3101 47.4729 14.8585 46.9101 14.8585C46.8169 14.8585 46.7309 14.8442 46.652 14.8155C46.7883 14.9482 46.9317 15.07 47.0822 15.1883L47.1539 15.2421C47.2328 15.3031 47.3582 15.4034 47.4192 15.4285C47.9246 15.45 48.7634 15.6723 48.9319 16.8947C48.9785 17.2316 49.018 17.5686 49.0502 17.9056C49.0968 17.2281 48.9785 16.4645 48.6989 15.5862L48.3548 14.5144L49.4302 14.8514C49.527 14.8801 49.6202 14.9016 49.7062 14.9231C49.9249 14.9733 50.1758 15.0306 50.3802 15.2206C50.4626 15.2959 50.5451 15.3712 50.6275 15.4464C51.0899 15.8659 51.5703 16.3032 51.9539 16.8337C52.3374 17.3714 52.6565 17.9593 52.9648 18.5293C53.0974 18.7731 53.2336 19.0276 53.377 19.2785L53.6781 19.8055L53.0149 20.1532C54.542 20.6049 55.7788 21.5512 56.7 22.9672C56.7502 23.0425 56.8147 23.1393 56.8721 23.2289C56.9187 23.1859 56.9689 23.1357 57.0191 23.0891L57.141 22.9708C57.8651 22.2825 58.6609 21.6767 59.4997 21.1677C60.6791 20.4507 61.5036 19.6836 62.0951 18.748C62.3424 18.3537 62.3101 18.1457 62.156 17.902C61.4928 16.8373 61.1487 15.6329 61.0985 14.2241C61.0913 14.0197 61.1451 13.8477 61.1881 13.7079C61.1989 13.672 61.2132 13.6326 61.2204 13.5967L61.3674 12.9622L61.9839 13.1809C62.0054 13.1881 62.052 13.1988 62.0915 13.2096C62.2707 13.2526 62.5431 13.3171 62.7331 13.5501C62.8837 13.7329 62.9876 13.9337 63.0773 14.1093C63.131 14.2133 63.1812 14.3137 63.235 14.3961C63.235 14.3961 63.3139 14.5216 63.3354 14.5467C63.3425 14.5431 63.3461 14.5395 63.3497 14.5323C63.5254 14.1165 63.6222 13.6362 63.7118 13.1701C63.7548 12.9515 63.7835 12.722 63.8121 12.4855C63.8516 12.1557 63.8946 11.8151 63.9806 11.471C64.0595 11.1591 64.2638 10.9369 64.4251 10.7612C64.4789 10.7038 64.5291 10.6501 64.5649 10.6035L64.651 10.4923C61.2777 7.19081 57.3381 4.46284 52.9898 2.46973C52.8572 2.97876 52.6063 3.47703 51.8857 3.47703Z" fill="#77DD77"/>
<path d="M68.6733 15.063C68.659 15.0881 68.6446 15.1132 68.6375 15.1311C68.5299 15.3713 68.426 15.615 68.322 15.8588C68.1607 16.2352 67.9922 16.6259 67.8166 17.0095C67.77 17.1135 67.7233 17.221 67.6803 17.3321C67.5262 17.7049 67.3541 18.1279 67.0351 18.4577C66.0349 19.4901 65.3539 20.7161 64.6297 22.0138C64.4541 22.3292 64.2713 22.6554 64.0884 22.9745C62.8732 25.0787 61.1812 26.7635 59.5394 28.391L59.4426 28.4878C59.0447 28.8821 58.5464 29.09 57.9908 29.09C57.7614 29.09 57.5212 29.0542 57.281 28.9825L57.005 28.9C55.84 28.5559 54.6355 28.1974 53.4633 27.7995C51.3662 27.0862 49.7818 25.8064 48.7458 23.9925L44.6843 33.381L45.8995 33.4562C47.6489 33.5638 49.4126 33.9366 51.1368 34.5639C51.3591 34.6464 51.524 34.7862 51.653 34.8973C51.6924 34.9295 51.7283 34.9654 51.7677 34.9941L52.2947 35.3848L51.8466 35.8652C51.8143 35.901 51.7821 35.9369 51.7534 35.9727C51.6638 36.0802 51.5526 36.2129 51.4021 36.324C51.9649 36.1842 52.5313 36.0444 53.0905 35.9046C53.345 35.8401 53.5995 35.8078 53.8469 35.8078C54.3487 35.8078 54.8327 35.9404 55.2772 36.2057L55.5102 36.3419C56.8365 37.127 58.2095 37.9371 59.5466 38.758C59.9517 39.0054 60.2958 39.3495 60.5503 39.6184C61.6867 40.83 61.8695 42.3356 61.0486 43.748C60.6543 44.4255 60.2492 44.9704 59.8119 45.4113C57.1878 48.0461 54.8721 50.3331 52.732 52.4051C51.6351 53.4662 50.4987 54.6205 49.685 56.0257C49.5344 56.2838 49.5165 56.4738 49.6097 56.7677C49.7674 57.266 49.8571 57.775 49.9467 58.2697C49.9897 58.5206 50.0327 58.7537 50.0829 58.9902C50.3697 60.3345 50.954 61.4386 51.8717 62.3635C52.1871 62.6825 52.5922 63.1091 52.9292 63.5894C53.2303 64.0232 53.3092 64.5036 53.1407 64.9086C52.9794 65.3029 52.6209 65.5682 52.1334 65.6578C51.9111 65.6973 51.6781 65.7188 51.4487 65.7188C51.0185 65.7188 50.6134 65.6435 50.2765 65.5037L50.2621 65.4965C49.2154 65.0592 48.1328 64.6111 47.2044 63.9192C45.6235 62.7435 44.0857 61.4637 42.6016 60.2234C42.279 59.9545 41.9563 59.6857 41.6337 59.4168C41.2573 59.105 41.0171 58.6604 40.8809 58.345C40.6658 57.8431 40.5762 57.0939 41.3864 56.3877C41.6731 56.1368 41.9348 55.8464 42.2073 55.5382C42.451 55.2657 42.7019 54.9825 42.9816 54.7208C43.2898 54.4305 43.8025 54.1186 44.3151 54.1114C44.86 54.1007 45.2507 53.9286 45.5912 53.5486C47 51.9678 48.2404 50.1467 49.3803 47.9744C49.5093 47.727 49.6241 47.4618 49.7424 47.1857C49.9144 46.7878 50.0901 46.3792 50.3302 45.9884C50.7532 45.3037 51.23 44.6477 51.6925 44.0168C51.8 43.8699 51.9075 43.7193 52.0151 43.5723C51.9577 43.5723 51.9004 43.5759 51.8466 43.5795C51.1619 43.6082 50.4665 43.6476 49.7925 43.6799C48.3945 43.7516 46.9463 43.8268 45.5196 43.8519C45.4443 43.8519 45.369 43.8555 45.2973 43.8555C44.3796 43.8555 43.4619 43.7623 42.5729 43.6691C42.4044 43.6512 42.2395 43.6333 42.071 43.6189C42.0316 43.6153 41.9958 43.6118 41.9599 43.6118C41.7735 43.6118 41.6516 43.6548 41.4545 43.9093C41.2215 44.2068 40.992 44.5044 40.759 44.8055C39.447 46.5011 38.0884 48.254 36.676 49.9209C36.1527 50.541 35.5576 51.0931 34.9804 51.6272C34.579 52 34.1631 52.3836 33.7867 52.7815C33.396 53.1902 33.0447 53.6275 32.6683 54.0899C32.3923 54.4305 32.1055 54.7854 31.8044 55.1259C31.7399 55.2012 31.6717 55.2801 31.6072 55.3589C31.2702 55.7604 30.8867 56.2157 30.349 56.4164C28.2232 57.2158 26.4882 58.5672 24.6493 59.9976C24.4557 60.1481 24.2657 60.2987 24.0721 60.4456C22.5199 61.6465 20.9785 62.9191 19.4837 64.1523C19.1252 64.4462 18.7667 64.7437 18.4082 65.0377C17.7594 65.5718 17.4404 66.0988 17.3794 66.7476C17.3328 67.2423 16.9672 67.6904 16.6732 67.9772C15.5154 69.0992 14.6013 70.0635 14.2213 71.3898C14.103 71.8056 14.042 72.2466 13.9775 72.7126C13.9596 72.8345 13.9417 72.9599 13.9238 73.0818C13.9166 73.1248 13.9166 73.1535 13.9166 73.1678L13.9202 73.2288L13.8019 73.8991H13.7804C13.7875 74.0999 13.7015 74.3042 13.533 74.4153C19.964 78.5808 27.6318 81.0005 35.8623 81.0005C58.5823 81.0005 77.0006 62.5821 77.0006 39.8621C77.0042 30.5598 73.8998 21.9636 68.6733 15.063Z" fill="#77DD77"/>
<path d="M19.8698 13.3133H6.79275C6.03279 13.3133 5.4198 12.6967 5.4198 11.9403C5.4198 11.1804 6.03637 10.5674 6.79275 10.5674H19.8698C20.6298 10.5674 21.2428 11.184 21.2428 11.9403C21.2464 12.6967 20.6298 13.3133 19.8698 13.3133Z" fill="white"/>
<path d="M18.2854 41.8372H2.423C1.66304 41.8372 1.05005 41.2206 1.05005 40.4643C1.05005 39.7043 1.66662 39.0913 2.423 39.0913H18.2854C19.0454 39.0913 19.6584 39.7079 19.6584 40.4643C19.6584 41.2242 19.0454 41.8372 18.2854 41.8372Z" fill="#77DD77"/>
<path d="M24.6447 48.1927H8.78225C8.02229 48.1927 7.4093 47.5761 7.4093 46.8197C7.4093 46.0598 8.02588 45.4468 8.78225 45.4468H24.6447C25.4046 45.4468 26.0176 46.0633 26.0176 46.8197C26.0176 47.5761 25.4011 48.1927 24.6447 48.1927Z" fill="white"/>
<path d="M5.39511 17.8694H4.25875C3.49879 17.8694 2.8858 17.2529 2.8858 16.4965C2.8858 15.7365 3.50238 15.1235 4.25875 15.1235H5.39511C6.15507 15.1235 6.76806 15.7401 6.76806 16.4965C6.76806 17.2529 6.15507 17.8694 5.39511 17.8694Z" fill="#77DD77"/>
<path d="M28.9258 41.0555H27.7894C27.0294 41.0555 26.4164 40.4389 26.4164 39.6825C26.4164 38.9226 27.033 38.3096 27.7894 38.3096H28.9258C29.6857 38.3096 30.2987 38.9261 30.2987 39.6825C30.2987 40.4389 29.6857 41.0555 28.9258 41.0555Z" fill="white"/>
<path d="M8.91171 25.9749H7.77536C7.01539 25.9749 6.4024 25.3583 6.4024 24.602C6.4024 23.842 7.01898 23.229 7.77536 23.229H8.91171C9.67168 23.229 10.2847 23.8456 10.2847 24.602C10.2847 25.3583 9.67168 25.9749 8.91171 25.9749Z" fill="#77DD77"/>
<path d="M2.67779 50.4188H1.37295C0.612989 50.4188 0 49.8022 0 49.0458C0 48.2858 0.616574 47.6729 1.37295 47.6729H2.67779C3.43775 47.6729 4.05074 48.2894 4.05074 49.0458C4.05074 49.8058 3.43775 50.4188 2.67779 50.4188Z" fill="#77DD77"/>
<path d="M68.321 13.8332C68.149 13.8762 67.959 13.8906 67.8048 13.9694C67.6543 14.0483 67.5396 14.1953 67.4069 14.31C67.3603 14.2813 67.3101 14.249 67.2635 14.2204C67.3603 13.8511 67.4858 13.4891 67.5396 13.1127C67.5826 12.7972 67.6256 12.2308 67.5145 12.1914C67.0592 12.0265 67.0198 12.5284 66.837 12.7936C66.7366 12.9406 66.6326 13.084 66.5322 13.2274C66.4821 13.2059 66.4319 13.1844 66.3817 13.1665C66.4713 12.6395 66.586 12.1125 66.6362 11.582C66.6577 11.3705 66.543 11.1411 66.4928 10.9224C66.3136 11.0658 66.0698 11.1769 65.9659 11.3633C65.7651 11.7218 65.6432 12.1233 65.4855 12.5069C65.4246 12.4997 65.3636 12.4889 65.3027 12.4818C65.3027 12.2022 65.3385 11.919 65.2919 11.6465C65.2489 11.4064 65.1163 11.1841 65.0231 10.9547C64.8582 11.1698 64.6037 11.3633 64.5427 11.6071C64.4065 12.152 64.3886 12.7255 64.281 13.2812C64.1807 13.7938 64.0767 14.3172 63.8688 14.7903C63.7756 15.0018 63.4386 15.1882 63.1913 15.2205C63.0658 15.2384 62.8687 14.9086 62.7396 14.7115C62.5711 14.4534 62.4636 14.1487 62.2736 13.9157C62.1768 13.7974 61.951 13.7866 61.7825 13.7257C61.7466 13.8834 61.6714 14.0447 61.6785 14.1989C61.7215 15.4069 62.0047 16.5504 62.6464 17.5864C62.9654 18.099 62.8973 18.5543 62.5819 19.0526C61.8757 20.171 60.9186 20.9812 59.7965 21.6623C58.99 22.1534 58.2229 22.7413 57.5346 23.3901C56.7746 24.1106 56.789 24.1859 56.1975 23.279C55.2654 21.8451 54.0036 20.931 52.3296 20.5761C52.1001 20.5295 51.8886 20.4076 51.523 20.2606C52.0858 19.9667 52.5052 19.748 52.8601 19.5616C52.3833 18.7264 51.9926 17.8983 51.4692 17.167C51.0606 16.5935 50.4978 16.1239 49.9744 15.6399C49.8346 15.5109 49.5837 15.5037 49.2431 15.3997C49.8202 17.1957 49.8489 18.7873 48.752 20.2212C48.6946 20.2105 48.6337 20.1997 48.5764 20.1925C48.5871 19.9882 48.6194 19.7803 48.6014 19.576C48.5262 18.7049 48.4616 17.8338 48.3433 16.9699C48.2681 16.4357 48.0243 16.0271 47.3683 16.0092C47.146 16.002 46.913 15.7977 46.7159 15.6471C45.6978 14.8585 45.0454 13.8117 44.5973 12.6216C44.5471 12.4925 44.5328 12.3491 44.4754 12.0875C44.6582 12.2273 44.7407 12.2739 44.8052 12.3384C45.3716 12.9012 45.9093 13.4963 46.5044 14.0268C46.9381 14.4139 47.0421 14.3315 47.2536 13.7938C47.6013 12.9084 47.992 12.0373 48.372 11.1626C48.5441 10.7683 48.8524 10.6787 49.2395 10.8041C49.5908 10.9188 49.9385 11.0515 50.2934 11.1554C50.7272 11.2809 50.9853 11.1303 51.0964 10.6607C51.2613 9.98322 51.4549 9.3093 51.6951 8.65688C51.7775 8.43821 52.0105 8.19444 52.2256 8.12275C52.6522 7.98295 52.645 7.76428 52.5446 7.41298C52.3869 6.85734 52.2901 6.28378 52.1288 5.72815C52.075 5.54533 51.9352 5.34817 51.7775 5.2478C51.5696 5.11875 51.3079 5.07573 51.0642 5.00404C50.7594 4.91442 50.6196 4.76027 50.8383 4.45916C51.1215 4.07201 51.1072 3.66693 50.9279 3.24035C50.867 3.09696 50.8634 2.92848 50.8204 2.7134C51.0068 2.73491 51.1 2.7349 51.186 2.75641C52.2041 3.01451 52.3188 2.94282 52.498 1.91042C52.5984 1.3261 52.3941 1.01423 51.6771 0.77764C49.874 0.18616 48.0135 0.0391884 46.1316 0.14673C45.2641 0.196916 44.5686 0.623499 44.1277 1.39063C43.4466 2.57359 43.0559 3.8139 43.4394 5.19044C43.6115 5.8106 43.8445 6.41642 43.952 7.04375C44.0345 7.50618 44.0954 8.04747 43.9305 8.45613C43.4179 9.72512 41.9518 10.8507 40.1487 10.0155C39.3994 9.66777 38.5033 9.53155 37.668 9.51004C36.7216 9.48495 35.8183 9.8004 34.8074 9.64984C33.7212 9.48853 32.5598 9.76097 31.4413 9.91153C30.1114 10.0908 28.7851 10.3202 27.4659 10.5747C26.9855 10.6679 26.4801 10.8149 26.0786 11.0766C23.451 12.7937 21.189 14.9373 19.0238 17.1957C18.6905 17.5434 18.2173 17.8087 17.7584 17.9843C16.6113 18.4181 15.4355 18.773 14.2777 19.1745C13.6145 19.4039 13.5822 19.5652 14.0554 20.1208C13.7901 20.2893 13.5141 20.4327 13.2847 20.6299C13.1664 20.7338 13.1341 20.9382 13.0624 21.0959C13.2202 21.1317 13.3779 21.2034 13.5356 21.1963C13.7041 21.1891 13.869 21.1102 14.0339 21.0636C13.7901 21.3719 13.4854 21.5404 13.2166 21.7591C13.084 21.8666 13.0194 22.0638 12.9262 22.2179C13.1198 22.2609 13.317 22.3505 13.5034 22.3326C13.7866 22.3039 14.059 22.2 14.3386 22.1283C14.3565 22.1749 14.3745 22.2215 14.3924 22.2681C14.206 22.3971 13.9945 22.5011 13.8403 22.6624C13.6288 22.8811 13.2489 23.2539 13.3098 23.3686C13.532 23.788 13.9156 23.4797 14.2311 23.3901C14.3995 23.3435 14.5501 23.2431 14.715 23.1894C15.5108 22.9348 16.3066 22.6732 17.1132 22.4545C17.3283 22.3971 17.5828 22.4832 17.8194 22.5047C17.7979 22.7449 17.805 22.9958 17.7441 23.2288C17.6401 23.6195 17.4752 23.9959 17.3749 24.3867C17.3498 24.4834 17.4394 24.6699 17.5254 24.7129C17.6079 24.7559 17.8086 24.7057 17.8696 24.6268C18.4646 23.8955 19.2318 23.2682 19.2927 22.2107C19.3142 21.8021 19.4182 21.4006 19.4612 20.9955C19.5257 20.3825 19.7874 19.9022 20.2462 19.4828C21.4471 18.3751 22.7986 17.5112 24.2575 16.7835C25.7345 16.0486 27.197 15.2743 28.6309 14.4498C29.079 14.1953 29.4375 14.0842 29.9322 14.2598C31.4055 14.7868 32.9075 15.199 34.4848 15.2313C34.9687 15.242 35.1695 15.4786 35.2519 15.9267C35.5459 17.5327 35.9115 19.1279 36.1481 20.741H40.8226C41.5825 20.741 42.1955 21.3576 42.1955 22.1139C42.1955 22.8739 41.579 23.4869 40.8226 23.4869H36.3775C36.3775 23.9457 36.356 24.401 36.3058 24.8598H36.8041C37.478 24.8598 38.0229 25.2577 38.0229 25.7524C38.0229 26.2435 37.478 26.645 36.8041 26.645H35.9617C35.3989 28.7959 34.4525 30.7854 33.4022 32.7283H36.0513C36.8113 32.7283 37.4243 33.3449 37.4243 34.1013C37.4243 34.8612 36.8077 35.4742 36.0513 35.4742H32.1834C31.9253 36.374 31.7962 37.3024 31.8393 38.2811C31.8679 38.9442 31.9002 39.6074 31.8679 40.2706C31.8464 40.6685 31.7962 41.1166 31.5955 41.4428C29.7852 44.4038 28.4983 47.6014 27.2472 50.8169C27.0393 51.3546 26.7059 51.7346 26.1718 51.9783C24.2719 52.8422 22.6767 54.0861 21.4615 55.8032C20.956 56.5202 20.4398 57.2407 19.8376 57.8716C18.565 59.2123 17.2566 60.5207 15.9051 61.7825C15.5825 62.0837 15.0484 62.2737 14.5931 62.3059C13.7435 62.3704 12.8832 62.2593 12.03 62.2629C11.1231 62.2665 10.8112 62.478 10.7037 63.3921C10.5926 64.3313 10.6212 65.292 10.6248 66.2419C10.6284 66.9625 10.7539 67.6866 10.7109 68.4C10.6141 70.0418 10.5101 71.6764 11.2091 73.2322C11.2342 73.2859 11.2486 73.3325 11.2557 73.3756L11.4314 73.5082C12.0444 73.458 12.6681 73.4078 13.3026 73.3612L13.3313 73.1999C13.3277 73.1425 13.3313 73.078 13.3421 73.0063C13.4281 72.4148 13.4926 71.809 13.6539 71.2391C14.0877 69.7155 15.1631 68.633 16.26 67.5647C16.5002 67.3317 16.7619 67.0055 16.7941 66.6972C16.8838 65.7795 17.3749 65.1343 18.0345 64.5894C19.9164 63.0408 21.7841 61.4743 23.7091 59.9866C25.7237 58.4272 27.6953 56.789 30.1365 55.8713C30.6204 55.6885 30.9897 55.1616 31.3589 54.7421C32.04 53.9714 32.6458 53.1254 33.3556 52.3798C34.2804 51.4048 35.3594 50.5659 36.2234 49.5443C37.8688 47.5942 39.4209 45.5652 40.9839 43.5506C41.2922 43.1527 41.6112 42.9842 42.1203 43.0344C43.2459 43.1455 44.375 43.2853 45.5006 43.2674C47.6049 43.2316 49.7091 43.0846 51.8098 42.995C52.2184 42.9771 52.6271 42.9914 53.0393 42.9914C53.0573 43.0559 53.0752 43.1205 53.0967 43.185C52.9246 43.3821 52.731 43.5685 52.5805 43.78C51.9818 44.6117 51.3581 45.429 50.8204 46.3001C50.444 46.9095 50.2253 47.6121 49.8884 48.2502C48.8165 50.2935 47.5583 52.2149 46.0168 53.9427C45.5652 54.4482 45.0167 54.6884 44.3141 54.6991C43.9951 54.7063 43.6187 54.9214 43.3713 55.1508C42.8049 55.6813 42.3425 56.3266 41.7582 56.832C41.3137 57.2192 41.1954 57.6243 41.4069 58.1154C41.5395 58.4272 41.7367 58.7534 41.9948 58.965C43.8266 60.4813 45.6369 62.0263 47.5439 63.4459C48.4186 64.0983 49.4725 64.5356 50.4942 64.9586C50.9458 65.145 51.5302 65.1665 52.0213 65.0733C52.6486 64.9586 52.8099 64.4424 52.4407 63.9155C52.1539 63.5032 51.8062 63.1268 51.4513 62.7648C50.4332 61.7359 49.8059 60.5064 49.5048 59.1012C49.3507 58.3771 49.2682 57.635 49.0495 56.9324C48.9026 56.47 48.9456 56.1187 49.175 55.7208C50.0031 54.2833 51.1394 53.1147 52.3224 51.9711C54.7026 49.6662 57.0578 47.3325 59.3951 44.9845C59.8431 44.5364 60.2195 43.9915 60.5386 43.4431C61.2376 42.2386 61.0727 41.0234 60.1192 40.0089C59.8539 39.7257 59.5635 39.4461 59.2373 39.2454C57.8285 38.3778 56.4018 37.539 54.9751 36.6966C54.4302 36.374 53.8459 36.3023 53.2257 36.46C52.0177 36.7647 50.806 37.0587 49.598 37.3562C49.408 37.4028 49.218 37.4387 49.0244 37.4781C48.9993 37.4171 48.9707 37.3562 48.9456 37.2989C49.6446 36.8185 50.3436 36.3453 51.0355 35.8542C51.1824 35.7502 51.29 35.5889 51.4154 35.4563C51.2541 35.338 51.1107 35.1731 50.9315 35.105C49.2933 34.5099 47.6013 34.1371 45.8591 34.0332C45.1709 33.9902 44.479 33.9471 43.8122 33.9077C45.429 30.1652 47.0277 26.473 48.6624 22.6947C48.7986 22.9097 48.9169 23.0567 48.9958 23.2216C49.978 25.2219 51.5624 26.5303 53.6451 27.2401C54.8998 27.6667 56.1688 28.0395 57.4414 28.4159C58.0185 28.588 58.5813 28.5055 59.0187 28.0682C60.6927 26.4049 62.3704 24.7559 63.5677 22.6803C64.4889 21.0815 65.2883 19.4003 66.6004 18.0453C66.923 17.7119 67.07 17.2029 67.2707 16.7619C67.5539 16.1454 67.812 15.5145 68.0844 14.8907C68.1633 14.7115 68.2995 14.5502 68.3389 14.3673C68.3927 14.2024 68.3354 14.016 68.321 13.8332Z" fill="white"/>
<path d="M29.6931 29.1292C30.4531 29.1292 31.0661 28.5126 31.0661 27.7563C31.0661 26.9963 30.4495 26.3833 29.6931 26.3833H13.8307C13.0708 26.3833 12.4578 26.9999 12.4578 27.7563C12.4578 28.5162 13.0743 29.1292 13.8307 29.1292H29.6931Z" fill="white"/>
<path d="M26.9864 35.4852C27.7464 35.4852 28.3594 34.8686 28.3594 34.1122C28.3594 33.3522 27.7428 32.7393 26.9864 32.7393H11.124C10.364 32.7393 9.75104 33.3558 9.75104 34.1122C9.75104 34.8722 10.3676 35.4852 11.124 35.4852H26.9864Z" fill="#77DD77"/>
<path d="M9.19517 66.2562L9.19159 65.8368C9.18801 65.4783 9.18801 65.1163 9.19159 64.7471H3.47036C2.7104 64.7471 2.09741 65.3636 2.09741 66.12C2.09741 66.88 2.71399 67.493 3.47036 67.493H9.2597C9.25253 67.4177 9.24895 67.346 9.24536 67.2707C9.22385 66.9481 9.19517 66.6111 9.19517 66.2562Z" fill="white"/>
<path d="M15.1567 17.3749C15.8844 17.1347 16.5691 16.9089 17.2466 16.6508C17.562 16.5325 17.8381 16.3676 17.985 16.2135C18.3256 15.8586 18.6841 15.4893 19.0533 15.1201H12.2351C11.4752 15.1201 10.8622 15.7367 10.8622 16.4931C10.8622 17.2494 11.4788 17.866 12.2351 17.866H13.6977C13.7371 17.8517 13.773 17.8373 13.8052 17.8266C14.2533 17.6724 14.705 17.5255 15.1567 17.3749Z" fill="white"/>
<path d="M28.0979 17.8697C28.8578 17.8697 29.4708 17.2531 29.4708 16.4968C29.4708 16.2243 29.3884 15.9734 29.2522 15.7583C28.0083 16.4681 26.6855 17.1779 25.309 17.8697H28.0979Z" fill="#77DD77"/>
<path d="M18.6624 57.0293H12.7583C11.9984 57.0293 11.3854 57.6459 11.3854 58.4022C11.3854 59.1622 12.0019 59.7752 12.7583 59.7752H15.9416C16.8306 58.9149 17.7303 58.0079 18.6624 57.0293Z" fill="#77DD77"/>
<path d="M13.3067 73.372C13.3067 73.372 13.2278 74.6087 12.493 74.6195C12.493 74.6195 11.7151 74.8095 11.2598 73.3864L12.2815 72.6909L13.3067 73.372Z" fill="white"/>
</svg>
