<svg width="42" height="32" viewBox="0 0 42 32" fill="none" xmlns="http://www.w3.org/2000/svg">
<rect opacity="0.05" width="42" height="32" rx="8" fill="#77DD77"/>
<path d="M21.5127 7.22516C21.3816 7.08171 21.1962 7 21.0018 7C20.8074 7 20.6221 7.08171 20.4909 7.22516L16.7986 11.2636C16.5406 11.5458 16.5602 11.9837 16.8423 12.2417C17.1245 12.4997 17.5624 12.4801 17.8204 12.1979L20.3095 9.47551V19.6923C20.3095 20.0746 20.6195 20.3846 21.0018 20.3846C21.3841 20.3846 21.6941 20.0746 21.6941 19.6923V9.47551L24.1832 12.1979C24.4412 12.4801 24.8791 12.4997 25.1613 12.2417C25.4435 11.9837 25.463 11.5458 25.205 11.2636L21.5127 7.22516Z" fill="#77DD77"/>
<path d="M13.3846 18.7695C13.3846 18.3871 13.0747 18.0771 12.6923 18.0771C12.31 18.0771 12 18.3871 12 18.7695V18.8201C12 20.0825 12 21.1 12.1076 21.9003C12.2193 22.7312 12.4582 23.4307 13.0139 23.9863C13.5695 24.542 14.2691 24.781 15.0999 24.8927C15.9002 25.0002 16.9177 25.0002 18.1801 25.0002H23.8199C25.0823 25.0002 26.0998 25.0002 26.9001 24.8927C27.731 24.781 28.4305 24.542 28.9862 23.9863C29.5418 23.4307 29.7808 22.7312 29.8925 21.9003C30 21.1 30 20.0825 30 18.8201V18.7695C30 18.3871 29.69 18.0771 29.3077 18.0771C28.9254 18.0771 28.6154 18.3871 28.6154 18.7695C28.6154 20.0944 28.6139 21.0185 28.5202 21.7158C28.4291 22.3932 28.2626 22.7518 28.0071 23.0073C27.7516 23.2628 27.393 23.4293 26.7156 23.5204C26.0183 23.6141 25.0942 23.6156 23.7692 23.6156H18.2308C16.9058 23.6156 15.9817 23.6141 15.2844 23.5204C14.6071 23.4293 14.2484 23.2628 13.9929 23.0073C13.7375 22.7518 13.5709 22.3932 13.4798 21.7158C13.3861 21.0185 13.3846 20.0944 13.3846 18.7695Z" fill="#77DD77"/>
</svg>
